<mxfile host="app.diagrams.net" modified="2024-01-08T13:46:36.483Z" agent="Mozilla/5.0 (Windows NT 10.0; Win64; x64) AppleWebKit/537.36 (KHTML, like Gecko) Chrome/120.0.0.0 Safari/537.36 Edg/120.0.0.0" etag="ptEyoZiNMUQu_Zj-AC4t" version="22.1.17" type="device">
  <diagram name="Strona-1" id="W8d2F96bDd9cp1vXeS1X">
    <mxGraphModel dx="835" dy="446" grid="1" gridSize="10" guides="1" tooltips="1" connect="1" arrows="1" fold="1" page="1" pageScale="1" pageWidth="827" pageHeight="1169" math="0" shadow="0">
      <root>
        <mxCell id="0" />
        <mxCell id="1" parent="0" />
        <mxCell id="WMlA8cb0RMyAAWn2i9c--5" value="" style="edgeStyle=orthogonalEdgeStyle;rounded=0;orthogonalLoop=1;jettySize=auto;html=1;" edge="1" parent="1" source="WMlA8cb0RMyAAWn2i9c--1" target="WMlA8cb0RMyAAWn2i9c--4">
          <mxGeometry relative="1" as="geometry" />
        </mxCell>
        <mxCell id="WMlA8cb0RMyAAWn2i9c--1" value="START" style="ellipse;whiteSpace=wrap;html=1;" vertex="1" parent="1">
          <mxGeometry x="240" y="40" width="120" height="80" as="geometry" />
        </mxCell>
        <mxCell id="WMlA8cb0RMyAAWn2i9c--9" value="" style="edgeStyle=orthogonalEdgeStyle;rounded=0;orthogonalLoop=1;jettySize=auto;html=1;" edge="1" parent="1" source="WMlA8cb0RMyAAWn2i9c--4" target="WMlA8cb0RMyAAWn2i9c--8">
          <mxGeometry relative="1" as="geometry" />
        </mxCell>
        <mxCell id="WMlA8cb0RMyAAWn2i9c--4" value="w = 1" style="whiteSpace=wrap;html=1;" vertex="1" parent="1">
          <mxGeometry x="240" y="210" width="120" height="60" as="geometry" />
        </mxCell>
        <mxCell id="WMlA8cb0RMyAAWn2i9c--11" value="" style="edgeStyle=orthogonalEdgeStyle;rounded=0;orthogonalLoop=1;jettySize=auto;html=1;" edge="1" parent="1" source="WMlA8cb0RMyAAWn2i9c--8" target="WMlA8cb0RMyAAWn2i9c--10">
          <mxGeometry relative="1" as="geometry" />
        </mxCell>
        <mxCell id="WMlA8cb0RMyAAWn2i9c--8" value="Wprowadź a (liczbę potęgowaną), n (wykładnik)" style="shape=parallelogram;perimeter=parallelogramPerimeter;whiteSpace=wrap;html=1;fixedSize=1;" vertex="1" parent="1">
          <mxGeometry x="190" y="350" width="220" height="60" as="geometry" />
        </mxCell>
        <mxCell id="WMlA8cb0RMyAAWn2i9c--13" value="" style="edgeStyle=orthogonalEdgeStyle;rounded=0;orthogonalLoop=1;jettySize=auto;html=1;" edge="1" parent="1" source="WMlA8cb0RMyAAWn2i9c--10" target="WMlA8cb0RMyAAWn2i9c--12">
          <mxGeometry relative="1" as="geometry" />
        </mxCell>
        <mxCell id="WMlA8cb0RMyAAWn2i9c--18" value="" style="edgeStyle=orthogonalEdgeStyle;rounded=0;orthogonalLoop=1;jettySize=auto;html=1;" edge="1" parent="1" source="WMlA8cb0RMyAAWn2i9c--10" target="WMlA8cb0RMyAAWn2i9c--17">
          <mxGeometry relative="1" as="geometry" />
        </mxCell>
        <mxCell id="WMlA8cb0RMyAAWn2i9c--10" value="n&amp;gt;0" style="rhombus;whiteSpace=wrap;html=1;" vertex="1" parent="1">
          <mxGeometry x="260" y="480" width="80" height="80" as="geometry" />
        </mxCell>
        <mxCell id="WMlA8cb0RMyAAWn2i9c--15" value="" style="edgeStyle=orthogonalEdgeStyle;rounded=0;orthogonalLoop=1;jettySize=auto;html=1;" edge="1" parent="1" source="WMlA8cb0RMyAAWn2i9c--12" target="WMlA8cb0RMyAAWn2i9c--14">
          <mxGeometry relative="1" as="geometry" />
        </mxCell>
        <mxCell id="WMlA8cb0RMyAAWn2i9c--12" value="Wyprowadź w (wynik)" style="shape=parallelogram;perimeter=parallelogramPerimeter;whiteSpace=wrap;html=1;fixedSize=1;" vertex="1" parent="1">
          <mxGeometry x="110" y="590" width="140" height="60" as="geometry" />
        </mxCell>
        <mxCell id="WMlA8cb0RMyAAWn2i9c--14" value="STOP" style="ellipse;whiteSpace=wrap;html=1;" vertex="1" parent="1">
          <mxGeometry x="100" y="740" width="160" height="80" as="geometry" />
        </mxCell>
        <mxCell id="WMlA8cb0RMyAAWn2i9c--16" value="NIE" style="text;html=1;strokeColor=none;fillColor=none;align=center;verticalAlign=middle;whiteSpace=wrap;rounded=0;" vertex="1" parent="1">
          <mxGeometry x="200" y="490" width="60" height="30" as="geometry" />
        </mxCell>
        <mxCell id="WMlA8cb0RMyAAWn2i9c--21" value="" style="edgeStyle=orthogonalEdgeStyle;rounded=0;orthogonalLoop=1;jettySize=auto;html=1;" edge="1" parent="1" source="WMlA8cb0RMyAAWn2i9c--17" target="WMlA8cb0RMyAAWn2i9c--20">
          <mxGeometry relative="1" as="geometry" />
        </mxCell>
        <mxCell id="WMlA8cb0RMyAAWn2i9c--27" value="" style="edgeStyle=orthogonalEdgeStyle;rounded=0;orthogonalLoop=1;jettySize=auto;html=1;entryX=0.072;entryY=0;entryDx=0;entryDy=0;entryPerimeter=0;exitX=0;exitY=0.5;exitDx=0;exitDy=0;" edge="1" parent="1" source="WMlA8cb0RMyAAWn2i9c--17" target="WMlA8cb0RMyAAWn2i9c--24">
          <mxGeometry relative="1" as="geometry">
            <mxPoint x="410" y="890" as="targetPoint" />
          </mxGeometry>
        </mxCell>
        <mxCell id="WMlA8cb0RMyAAWn2i9c--17" value="n%2 == 1" style="rhombus;whiteSpace=wrap;html=1;" vertex="1" parent="1">
          <mxGeometry x="440" y="570" width="80" height="80" as="geometry" />
        </mxCell>
        <mxCell id="WMlA8cb0RMyAAWn2i9c--19" value="TAK" style="text;html=1;strokeColor=none;fillColor=none;align=center;verticalAlign=middle;whiteSpace=wrap;rounded=0;" vertex="1" parent="1">
          <mxGeometry x="330" y="490" width="60" height="30" as="geometry" />
        </mxCell>
        <mxCell id="WMlA8cb0RMyAAWn2i9c--25" value="" style="edgeStyle=orthogonalEdgeStyle;rounded=0;orthogonalLoop=1;jettySize=auto;html=1;" edge="1" parent="1" source="WMlA8cb0RMyAAWn2i9c--20" target="WMlA8cb0RMyAAWn2i9c--24">
          <mxGeometry relative="1" as="geometry" />
        </mxCell>
        <mxCell id="WMlA8cb0RMyAAWn2i9c--20" value="w *= a" style="whiteSpace=wrap;html=1;" vertex="1" parent="1">
          <mxGeometry x="540" y="700" width="120" height="60" as="geometry" />
        </mxCell>
        <mxCell id="WMlA8cb0RMyAAWn2i9c--22" value="TAK" style="text;html=1;strokeColor=none;fillColor=none;align=center;verticalAlign=middle;whiteSpace=wrap;rounded=0;" vertex="1" parent="1">
          <mxGeometry x="510" y="580" width="60" height="30" as="geometry" />
        </mxCell>
        <mxCell id="WMlA8cb0RMyAAWn2i9c--23" value="NIE" style="text;html=1;strokeColor=none;fillColor=none;align=center;verticalAlign=middle;whiteSpace=wrap;rounded=0;" vertex="1" parent="1">
          <mxGeometry x="390" y="570" width="60" height="30" as="geometry" />
        </mxCell>
        <mxCell id="WMlA8cb0RMyAAWn2i9c--24" value="a *= a&lt;br&gt;n /= 2" style="whiteSpace=wrap;html=1;" vertex="1" parent="1">
          <mxGeometry x="400" y="870" width="140" height="60" as="geometry" />
        </mxCell>
        <mxCell id="WMlA8cb0RMyAAWn2i9c--28" value="" style="endArrow=classic;html=1;rounded=0;exitX=1;exitY=0.5;exitDx=0;exitDy=0;entryX=0.676;entryY=0.16;entryDx=0;entryDy=0;entryPerimeter=0;" edge="1" parent="1" source="WMlA8cb0RMyAAWn2i9c--24" target="WMlA8cb0RMyAAWn2i9c--10">
          <mxGeometry width="50" height="50" relative="1" as="geometry">
            <mxPoint x="300" y="740" as="sourcePoint" />
            <mxPoint x="350" y="690" as="targetPoint" />
            <Array as="points">
              <mxPoint x="690" y="900" />
              <mxPoint x="690" y="493" />
            </Array>
          </mxGeometry>
        </mxCell>
      </root>
    </mxGraphModel>
  </diagram>
</mxfile>
